# xmcd
#
# Track frame offsets:
#	150
#	21298
#	39363
#	54285
#	74895
#	91574
#	106279
#	121291
#	140640
#	158191
#	175043
#	194412
#	212547
#
# Disc length: 2895 seconds
#
# Revision: 1
# Processed by: cddbd v1.5.2PL0 Copyright (c) Steve Scherf et al.
# Submitted via: audiograbber 1.83.01
#
DISCID=af0b4d0d
DTITLE=Bella - Gravity
DYEAR=2005
DGENRE=Country
TTITLE0=About A Girl
TTITLE1=She Still Believes
TTITLE2=Heart And All
TTITLE3=Empty
TTITLE4=Gravity
TTITLE5=Cruel World
TTITLE6=I'm Not Gonna Do That Now
TTITLE7=Time Again
TTITLE8=Endlessly
TTITLE9=Suffer For My Heart
TTITLE10=Friction
TTITLE11=Fields Of Gold
TTITLE12=Gravity (Reprise)
EXTD=YEAR: 2005
EXTT0=
EXTT1=
EXTT2=
EXTT3=
EXTT4=
EXTT5=
EXTT6=
EXTT7=
EXTT8=
EXTT9=
EXTT10=
EXTT11=
EXTT12=
PLAYORDER=
